<svg xmlns="http://www.w3.org/2000/svg" width="900" height="750" viewBox="0 0 900 750">
  <defs>
    <marker id="arrow" viewBox="0 0 10 10" refX="9" refY="5" markerWidth="6" markerHeight="6" orient="auto-start-reverse">
      <path d="M 0 0 L 10 5 L 0 10 z" fill="#666"/>
    </marker>
  </defs>

  <text x="450" y="30" font-family="Arial" font-size="20" font-weight="bold" text-anchor="middle">Microservices Architecture</text>

  <!-- Legend -->
  <rect x="750" y="50" width="120" height="100" fill="#f9f9f9" stroke="#ccc"/>
  <rect x="760" y="60" width="10" height="10" fill="#add8e6"/><text x="775" y="70" font-size="12">Frontend</text>
  <rect x="760" y="80" width="10" height="10" fill="#90ee90"/><text x="775" y="90" font-size="12">Backend</text>
  <rect x="760" y="100" width="10" height="10" fill="#ffcc99"/><text x="775" y="110" font-size="12">Data Layer</text>
  <rect x="760" y="120" width="10" height="10" fill="#d8b4fe"/><text x="775" y="130" font-size="12">Monitoring</text>

  <!-- Frontend Tier -->
  <rect x="50" y="80" width="100" height="50" fill="#add8e6" stroke="#555" rx="5"/><text x="100" y="110" font-size="12" text-anchor="middle">React App</text>
  <rect x="200" y="80" width="80" height="50" fill="#add8e6" stroke="#555" rx="5"/><text x="240" y="110" font-size="12" text-anchor="middle">CDN</text>
  <rect x="350" y="80" width="100" height="50" fill="#add8e6" stroke="#555" rx="5"/><text x="400" y="110" font-size="12" text-anchor="middle">Load Balancer</text>

  <!-- Backend Tier -->
  <rect x="350" y="200" width="100" height="50" fill="#90ee90" stroke="#555" rx="5"/><text x="400" y="230" font-size="12" text-anchor="middle">API Gateway</text>
  <rect x="50" y="300" width="90" height="50" fill="#90ee90" stroke="#555" rx="5"/><text x="95" y="330" font-size="11" text-anchor="middle">Auth</text>
  <rect x="170" y="300" width="90" height="50" fill="#90ee90" stroke="#555" rx="5"/><text x="215" y="330" font-size="11" text-anchor="middle">User</text>
  <rect x="290" y="300" width="90" height="50" fill="#90ee90" stroke="#555" rx="5"/><text x="335" y="330" font-size="11" text-anchor="middle">Order</text>
  <rect x="410" y="300" width="90" height="50" fill="#90ee90" stroke="#555" rx="5"/><text x="455" y="330" font-size="11" text-anchor="middle">Notify</text>
  <rect x="530" y="300" width="90" height="50" fill="#90ee90" stroke="#555" rx="5"/><text x="575" y="330" font-size="11" text-anchor="middle">Search</text>

  <!-- Data Layer -->
  <rect x="50" y="450" width="90" height="50" fill="#ffcc99" stroke="#555" rx="5"/><text x="95" y="480" font-size="11" text-anchor="middle">Postgres</text>
  <rect x="170" y="450" width="90" height="50" fill="#ffcc99" stroke="#555" rx="5"/><text x="215" y="480" font-size="11" text-anchor="middle">Redis</text>
  <rect x="290" y="450" width="90" height="50" fill="#ffcc99" stroke="#555" rx="5"/><text x="335" y="480" font-size="11" text-anchor="middle">RabbitMQ</text>
  <rect x="410" y="450" width="90" height="50" fill="#ffcc99" stroke="#555" rx="5"/><text x="455" y="480" font-size="11" text-anchor="middle">S3</text>
  <rect x="530" y="450" width="90" height="50" fill="#ffcc99" stroke="#555" rx="5"/><text x="575" y="480" font-size="11" text-anchor="middle">Elastic</text>

  <!-- Monitoring Tier -->
  <rect x="150" y="600" width="100" height="50" fill="#d8b4fe" stroke="#555" rx="5"/><text x="200" y="630" font-size="12" text-anchor="middle">Prometheus</text>
  <rect x="350" y="600" width="100" height="50" fill="#d8b4fe" stroke="#555" rx="5"/><text x="400" y="630" font-size="12" text-anchor="middle">Grafana</text>
  <rect x="550" y="600" width="100" height="50" fill="#d8b4fe" stroke="#555" rx="5"/><text x="600" y="630" font-size="12" text-anchor="middle">Jaeger</text>

  <!-- Connections -->
  <path d="M400 250 V300" fill="none" stroke="#666" marker-end="url(#arrow)"/>
  <path d="M95 350 V450 M215 350 V450 M335 350 V450 M455 350 V450 M575 350 V450" fill="none" stroke="#666" stroke-dasharray="4"/>
  <path d="M200 600 V350 M400 600 V350 M600 600 V350" fill="none" stroke="#7e22ce" stroke-width="2" marker-end="url(#arrow)"/>
</svg>