<svg xmlns="http://www.w3.org/2000/svg" xmlns:aap="http://aap.dev" viewBox="0 0 800 750" width="800" height="750">
  <style>
    .box { rx: 5; ry: 5; stroke: #333; stroke-width: 2; }
    .frontend { fill: #e3f2fd; stroke: #1565c0; }
    .backend { fill: #e8f5e9; stroke: #2e7d32; }
    .data { fill: #fff3e0; stroke: #ef6c00; }
    .monitoring { fill: #f3e5f5; stroke: #7b1fa2; }
    text { font-family: sans-serif; font-size: 12px; pointer-events: none; }
    .label { font-weight: bold; font-size: 14px; }
  </style>

  <text x="400" y="30" text-anchor="middle" font-size="20" font-weight="bold">Microservices Architecture</text>

  <aap:target id="frontend-tier">
    <g transform="translate(50, 80)">
      <text class="label" x="0" y="-10">Frontend Tier</text>
      <rect class="box frontend" x="0" y="0" width="120" height="50" />
      <text x="60" y="30" text-anchor="middle">React App</text>
      <rect class="box frontend" x="150" y="0" width="120" height="50" />
      <text x="210" y="30" text-anchor="middle">CDN</text>
      <rect class="box frontend" x="300" y="0" width="120" height="50" />
      <text x="360" y="30" text-anchor="middle">Load Balancer</text>
    </g>
  </aap:target>

  <aap:target id="backend-tier">      <rect class="box backend" x="450" y="0" width="120" height="50" />
      <text x="510" y="30" text-anchor="middle">Order Service</text>
      
      <rect class="box backend" x="600" y="0" width="120" height="50" />
      <text x="660" y="30" text-anchor="middle">Notification Service</text>

      <rect class="box backend" x="0" y="70" width="120" height="50" />
      <text x="60" y="100" text-anchor="middle">Search Service</text></aap:target>

  <aap:target id="data-layer">      <rect class="box data" x="450" y="0" width="120" height="50" />
      <text x="510" y="30" text-anchor="middle">S3 Bucket</text>
      <rect class="box data" x="600" y="0" width="120" height="50" />
      <text x="660" y="30" text-anchor="middle">Elasticsearch</text></aap:target>

  <aap:target id="monitoring-tier">
    <g transform="translate(50, 500)">
      <text class="label" x="0" y="-10">Monitoring Tier</text>
      <rect class="box monitoring" x="0" y="0" width="120" height="50" />
      <text x="60" y="30" text-anchor="middle">Prometheus</text>
      <rect class="box monitoring" x="150" y="0" width="120" height="50" />
      <text x="210" y="30" text-anchor="middle">Grafana</text>
      <rect class="box monitoring" x="300" y="0" width="120" height="50" />
      <text x="360" y="30" text-anchor="middle">Jaeger</text>
    </g>
  </aap:target>

  <aap:target id="connections">      <path d="M260 250 L260 350" />
      <text x="270" y="300" font-size="10" fill="#333">gRPC</text>
      <path d="M660 250 L660 350" />
      <text x="670" y="300" font-size="10" fill="#333">AMQP</text>
      <path d="M60 320 L660 350" />
      <text x="360" y="330" font-size="10" fill="#333">REST</text></aap:target>

  <defs>
    <marker id="arrow" viewBox="0 0 10 10" refX="9" refY="5" markerWidth="6" markerHeight="6" orient="auto-start-reverse">
      <path d="M 0 0 L 10 5 L 0 10 z" fill="#666" />
    </marker>
  </defs>

  <g transform="translate(50, 650)">
    <text class="label" x="0" y="0">Legend:</text>
    <rect x="80" y="-12" width="15" height="15" class="frontend" /> <text x="100" y="0">Frontend</text>
    <rect x="180" y="-12" width="15" height="15" class="backend" /> <text x="200" y="0">Backend</text>
    <rect x="280" y="-12" width="15" height="15" class="data" /> <text x="300" y="0">Data</text>
    <rect x="380" y="-12" width="15" height="15" class="monitoring" /> <text x="400" y="0">Monitoring</text>
  </g>
</svg>
